<mxfile host="Electron" agent="Mozilla/5.0 (Windows NT 10.0; Win64; x64) AppleWebKit/537.36 (KHTML, like Gecko) draw.io/24.7.17 Chrome/128.0.6613.36 Electron/32.0.1 Safari/537.36" version="24.7.17" pages="2">
  <diagram id="jrr0dy3oa-D02tdQUbo1" name="ESQUEMA E-R">
    <mxGraphModel dx="757" dy="447" grid="1" gridSize="10" guides="1" tooltips="1" connect="1" arrows="1" fold="1" page="1" pageScale="1" pageWidth="827" pageHeight="1169" math="0" shadow="0">
      <root>
        <mxCell id="0" />
        <mxCell id="1" parent="0" />
        <mxCell id="ZvWubD1o9befK8H699vl-6" style="edgeStyle=orthogonalEdgeStyle;rounded=0;orthogonalLoop=1;jettySize=auto;html=1;exitX=1;exitY=0.5;exitDx=0;exitDy=0;entryX=0;entryY=0.5;entryDx=0;entryDy=0;endArrow=none;endFill=0;" parent="1" source="ZvWubD1o9befK8H699vl-1" target="ZvWubD1o9befK8H699vl-4" edge="1">
          <mxGeometry relative="1" as="geometry" />
        </mxCell>
        <mxCell id="ZvWubD1o9befK8H699vl-11" style="edgeStyle=orthogonalEdgeStyle;rounded=0;orthogonalLoop=1;jettySize=auto;html=1;exitX=0;exitY=0;exitDx=0;exitDy=0;entryX=0.5;entryY=1;entryDx=0;entryDy=0;endArrow=none;endFill=0;" parent="1" source="ZvWubD1o9befK8H699vl-1" target="ZvWubD1o9befK8H699vl-10" edge="1">
          <mxGeometry relative="1" as="geometry" />
        </mxCell>
        <mxCell id="ZvWubD1o9befK8H699vl-23" style="edgeStyle=orthogonalEdgeStyle;rounded=0;orthogonalLoop=1;jettySize=auto;html=1;exitX=0;exitY=1;exitDx=0;exitDy=0;entryX=0.5;entryY=0;entryDx=0;entryDy=0;endArrow=none;endFill=0;" parent="1" source="ZvWubD1o9befK8H699vl-1" target="ZvWubD1o9befK8H699vl-22" edge="1">
          <mxGeometry relative="1" as="geometry" />
        </mxCell>
        <mxCell id="ZvWubD1o9befK8H699vl-26" style="edgeStyle=orthogonalEdgeStyle;rounded=0;orthogonalLoop=1;jettySize=auto;html=1;exitX=0.5;exitY=0;exitDx=0;exitDy=0;entryX=0.5;entryY=1;entryDx=0;entryDy=0;endArrow=none;endFill=0;" parent="1" source="ZvWubD1o9befK8H699vl-1" target="ZvWubD1o9befK8H699vl-25" edge="1">
          <mxGeometry relative="1" as="geometry" />
        </mxCell>
        <mxCell id="ZvWubD1o9befK8H699vl-1" value="EXPOSICIÓN" style="whiteSpace=wrap;html=1;align=center;" parent="1" vertex="1">
          <mxGeometry x="20" y="230" width="100" height="40" as="geometry" />
        </mxCell>
        <mxCell id="ZvWubD1o9befK8H699vl-8" style="edgeStyle=orthogonalEdgeStyle;rounded=0;orthogonalLoop=1;jettySize=auto;html=1;exitX=1;exitY=0.5;exitDx=0;exitDy=0;entryX=0;entryY=0.5;entryDx=0;entryDy=0;endArrow=none;endFill=0;" parent="1" source="ZvWubD1o9befK8H699vl-2" target="ZvWubD1o9befK8H699vl-5" edge="1">
          <mxGeometry relative="1" as="geometry" />
        </mxCell>
        <mxCell id="ZvWubD1o9befK8H699vl-39" style="edgeStyle=orthogonalEdgeStyle;rounded=0;orthogonalLoop=1;jettySize=auto;html=1;exitX=0;exitY=0;exitDx=0;exitDy=0;entryX=0.5;entryY=1;entryDx=0;entryDy=0;endArrow=none;endFill=0;" parent="1" source="ZvWubD1o9befK8H699vl-2" target="ZvWubD1o9befK8H699vl-38" edge="1">
          <mxGeometry relative="1" as="geometry" />
        </mxCell>
        <mxCell id="ZvWubD1o9befK8H699vl-41" style="edgeStyle=orthogonalEdgeStyle;rounded=0;orthogonalLoop=1;jettySize=auto;html=1;exitX=0.25;exitY=0;exitDx=0;exitDy=0;entryX=0.5;entryY=1;entryDx=0;entryDy=0;endArrow=none;endFill=0;" parent="1" source="ZvWubD1o9befK8H699vl-2" target="ZvWubD1o9befK8H699vl-40" edge="1">
          <mxGeometry relative="1" as="geometry" />
        </mxCell>
        <mxCell id="ZvWubD1o9befK8H699vl-43" style="edgeStyle=orthogonalEdgeStyle;rounded=0;orthogonalLoop=1;jettySize=auto;html=1;exitX=0.5;exitY=0;exitDx=0;exitDy=0;entryX=0.5;entryY=1;entryDx=0;entryDy=0;endArrow=none;endFill=0;" parent="1" source="ZvWubD1o9befK8H699vl-2" target="ZvWubD1o9befK8H699vl-42" edge="1">
          <mxGeometry relative="1" as="geometry" />
        </mxCell>
        <mxCell id="ZvWubD1o9befK8H699vl-50" style="edgeStyle=orthogonalEdgeStyle;rounded=0;orthogonalLoop=1;jettySize=auto;html=1;exitX=0;exitY=1;exitDx=0;exitDy=0;entryX=0.5;entryY=0;entryDx=0;entryDy=0;endArrow=none;endFill=0;" parent="1" source="ZvWubD1o9befK8H699vl-2" target="ZvWubD1o9befK8H699vl-49" edge="1">
          <mxGeometry relative="1" as="geometry" />
        </mxCell>
        <mxCell id="ZvWubD1o9befK8H699vl-2" value="OBRA" style="whiteSpace=wrap;html=1;align=center;" parent="1" vertex="1">
          <mxGeometry x="340" y="230" width="100" height="40" as="geometry" />
        </mxCell>
        <mxCell id="ZvWubD1o9befK8H699vl-54" style="edgeStyle=orthogonalEdgeStyle;rounded=0;orthogonalLoop=1;jettySize=auto;html=1;exitX=0;exitY=0;exitDx=0;exitDy=0;entryX=0.5;entryY=1;entryDx=0;entryDy=0;endArrow=none;endFill=0;" parent="1" source="ZvWubD1o9befK8H699vl-3" target="ZvWubD1o9befK8H699vl-53" edge="1">
          <mxGeometry relative="1" as="geometry" />
        </mxCell>
        <mxCell id="ZvWubD1o9befK8H699vl-3" value="ARTISTA" style="whiteSpace=wrap;html=1;align=center;" parent="1" vertex="1">
          <mxGeometry x="660" y="230" width="100" height="40" as="geometry" />
        </mxCell>
        <mxCell id="ZvWubD1o9befK8H699vl-7" style="edgeStyle=orthogonalEdgeStyle;rounded=0;orthogonalLoop=1;jettySize=auto;html=1;exitX=1;exitY=0.5;exitDx=0;exitDy=0;endArrow=none;endFill=0;" parent="1" source="ZvWubD1o9befK8H699vl-4" target="ZvWubD1o9befK8H699vl-2" edge="1">
          <mxGeometry relative="1" as="geometry" />
        </mxCell>
        <mxCell id="ZvWubD1o9befK8H699vl-4" value="EXPONER" style="shape=rhombus;perimeter=rhombusPerimeter;whiteSpace=wrap;html=1;align=center;" parent="1" vertex="1">
          <mxGeometry x="170" y="220" width="120" height="60" as="geometry" />
        </mxCell>
        <mxCell id="ZvWubD1o9befK8H699vl-9" style="edgeStyle=orthogonalEdgeStyle;rounded=0;orthogonalLoop=1;jettySize=auto;html=1;exitX=1;exitY=0.5;exitDx=0;exitDy=0;entryX=0;entryY=0.5;entryDx=0;entryDy=0;endArrow=none;endFill=0;" parent="1" source="ZvWubD1o9befK8H699vl-5" target="ZvWubD1o9befK8H699vl-3" edge="1">
          <mxGeometry relative="1" as="geometry" />
        </mxCell>
        <mxCell id="ZvWubD1o9befK8H699vl-5" value="CREAN" style="shape=rhombus;perimeter=rhombusPerimeter;whiteSpace=wrap;html=1;align=center;" parent="1" vertex="1">
          <mxGeometry x="490" y="220" width="120" height="60" as="geometry" />
        </mxCell>
        <mxCell id="ZvWubD1o9befK8H699vl-10" value="" style="ellipse;whiteSpace=wrap;html=1;aspect=fixed;" parent="1" vertex="1">
          <mxGeometry x="15" y="180" width="10" height="10" as="geometry" />
        </mxCell>
        <mxCell id="ZvWubD1o9befK8H699vl-21" value="Título" style="text;html=1;strokeColor=none;fillColor=none;align=center;verticalAlign=middle;whiteSpace=wrap;rounded=0;" parent="1" vertex="1">
          <mxGeometry x="5" y="168" width="30" height="10" as="geometry" />
        </mxCell>
        <mxCell id="ZvWubD1o9befK8H699vl-22" value="" style="ellipse;whiteSpace=wrap;html=1;aspect=fixed;" parent="1" vertex="1">
          <mxGeometry x="15" y="320" width="10" height="10" as="geometry" />
        </mxCell>
        <mxCell id="ZvWubD1o9befK8H699vl-24" value="Descripción" style="text;html=1;strokeColor=none;fillColor=none;align=center;verticalAlign=middle;whiteSpace=wrap;rounded=0;" parent="1" vertex="1">
          <mxGeometry x="5" y="333" width="65" height="10" as="geometry" />
        </mxCell>
        <mxCell id="ZvWubD1o9befK8H699vl-25" value="" style="ellipse;whiteSpace=wrap;html=1;" parent="1" vertex="1">
          <mxGeometry x="50" y="190" width="40" height="20" as="geometry" />
        </mxCell>
        <mxCell id="ZvWubD1o9befK8H699vl-29" style="edgeStyle=orthogonalEdgeStyle;rounded=0;orthogonalLoop=1;jettySize=auto;html=1;exitX=0.5;exitY=1;exitDx=0;exitDy=0;entryX=0;entryY=0;entryDx=0;entryDy=0;endArrow=none;endFill=0;" parent="1" source="ZvWubD1o9befK8H699vl-27" target="ZvWubD1o9befK8H699vl-25" edge="1">
          <mxGeometry relative="1" as="geometry" />
        </mxCell>
        <mxCell id="ZvWubD1o9befK8H699vl-27" value="" style="ellipse;whiteSpace=wrap;html=1;aspect=fixed;" parent="1" vertex="1">
          <mxGeometry x="50" y="158" width="10" height="10" as="geometry" />
        </mxCell>
        <mxCell id="ZvWubD1o9befK8H699vl-30" style="edgeStyle=orthogonalEdgeStyle;rounded=0;orthogonalLoop=1;jettySize=auto;html=1;exitX=0.5;exitY=1;exitDx=0;exitDy=0;entryX=1;entryY=0;entryDx=0;entryDy=0;endArrow=none;endFill=0;" parent="1" source="ZvWubD1o9befK8H699vl-28" target="ZvWubD1o9befK8H699vl-25" edge="1">
          <mxGeometry relative="1" as="geometry" />
        </mxCell>
        <mxCell id="ZvWubD1o9befK8H699vl-28" value="" style="ellipse;whiteSpace=wrap;html=1;aspect=fixed;" parent="1" vertex="1">
          <mxGeometry x="80" y="158" width="10" height="10" as="geometry" />
        </mxCell>
        <mxCell id="ZvWubD1o9befK8H699vl-31" value="F_Inaugura" style="text;html=1;strokeColor=none;fillColor=none;align=center;verticalAlign=middle;whiteSpace=wrap;rounded=0;" parent="1" vertex="1">
          <mxGeometry x="50" y="140" width="65" height="12" as="geometry" />
        </mxCell>
        <mxCell id="ZvWubD1o9befK8H699vl-32" value="F_Clausura" style="text;html=1;strokeColor=none;fillColor=none;align=center;verticalAlign=middle;whiteSpace=wrap;rounded=0;" parent="1" vertex="1">
          <mxGeometry x="90" y="158" width="70" height="10" as="geometry" />
        </mxCell>
        <mxCell id="ZvWubD1o9befK8H699vl-33" value="(0,1)" style="text;html=1;strokeColor=none;fillColor=none;align=center;verticalAlign=middle;whiteSpace=wrap;rounded=0;" parent="1" vertex="1">
          <mxGeometry x="87" y="180" width="25" height="10" as="geometry" />
        </mxCell>
        <mxCell id="ZvWubD1o9befK8H699vl-34" value="" style="line;strokeWidth=1;rotatable=0;dashed=0;labelPosition=right;align=left;verticalAlign=middle;spacingTop=0;spacingLeft=6;points=[];portConstraint=eastwest;" parent="1" vertex="1">
          <mxGeometry x="10" y="215" width="80" height="10" as="geometry" />
        </mxCell>
        <mxCell id="ZvWubD1o9befK8H699vl-35" value="" style="ellipse;whiteSpace=wrap;html=1;aspect=fixed;fillColor=#000000;" parent="1" vertex="1">
          <mxGeometry x="90" y="215" width="10" height="10" as="geometry" />
        </mxCell>
        <mxCell id="ZvWubD1o9befK8H699vl-36" value="" style="ellipse;whiteSpace=wrap;html=1;aspect=fixed;fillColor=#000000;" parent="1" vertex="1">
          <mxGeometry x="18" y="217.5" width="5" height="5" as="geometry" />
        </mxCell>
        <mxCell id="ZvWubD1o9befK8H699vl-37" value="" style="ellipse;whiteSpace=wrap;html=1;aspect=fixed;fillColor=#000000;" parent="1" vertex="1">
          <mxGeometry x="67.5" y="217.5" width="5" height="5" as="geometry" />
        </mxCell>
        <mxCell id="ZvWubD1o9befK8H699vl-38" value="" style="ellipse;whiteSpace=wrap;html=1;aspect=fixed;fillColor=#000000;" parent="1" vertex="1">
          <mxGeometry x="335" y="142" width="10" height="10" as="geometry" />
        </mxCell>
        <mxCell id="ZvWubD1o9befK8H699vl-40" value="" style="ellipse;whiteSpace=wrap;html=1;aspect=fixed;" parent="1" vertex="1">
          <mxGeometry x="360" y="168" width="10" height="10" as="geometry" />
        </mxCell>
        <mxCell id="ZvWubD1o9befK8H699vl-42" value="" style="ellipse;whiteSpace=wrap;html=1;aspect=fixed;" parent="1" vertex="1">
          <mxGeometry x="385" y="190" width="10" height="10" as="geometry" />
        </mxCell>
        <mxCell id="ZvWubD1o9befK8H699vl-44" value="Num_Registro" style="text;html=1;strokeColor=none;fillColor=none;align=center;verticalAlign=middle;whiteSpace=wrap;rounded=0;" parent="1" vertex="1">
          <mxGeometry x="325" y="130" width="80" height="9" as="geometry" />
        </mxCell>
        <mxCell id="ZvWubD1o9befK8H699vl-45" value="Título" style="text;html=1;strokeColor=none;fillColor=none;align=center;verticalAlign=middle;whiteSpace=wrap;rounded=0;" parent="1" vertex="1">
          <mxGeometry x="355" y="156" width="30" height="8" as="geometry" />
        </mxCell>
        <mxCell id="ZvWubD1o9befK8H699vl-46" value="Precio" style="text;html=1;strokeColor=none;fillColor=none;align=center;verticalAlign=middle;whiteSpace=wrap;rounded=0;" parent="1" vertex="1">
          <mxGeometry x="378" y="178" width="36" height="10" as="geometry" />
        </mxCell>
        <mxCell id="ZvWubD1o9befK8H699vl-49" value="" style="ellipse;whiteSpace=wrap;html=1;aspect=fixed;" parent="1" vertex="1">
          <mxGeometry x="335" y="310" width="10" height="10" as="geometry" />
        </mxCell>
        <mxCell id="ZvWubD1o9befK8H699vl-51" value="Estilo" style="text;html=1;strokeColor=none;fillColor=none;align=center;verticalAlign=middle;whiteSpace=wrap;rounded=0;" parent="1" vertex="1">
          <mxGeometry x="325" y="324" width="35" height="10" as="geometry" />
        </mxCell>
        <mxCell id="ZvWubD1o9befK8H699vl-52" value="(1,n)" style="text;html=1;strokeColor=none;fillColor=none;align=center;verticalAlign=middle;whiteSpace=wrap;rounded=0;" parent="1" vertex="1">
          <mxGeometry x="344" y="284" width="25" height="10" as="geometry" />
        </mxCell>
        <mxCell id="ZvWubD1o9befK8H699vl-53" value="" style="ellipse;whiteSpace=wrap;html=1;aspect=fixed;" parent="1" vertex="1">
          <mxGeometry x="655" y="158" width="10" height="10" as="geometry" />
        </mxCell>
        <mxCell id="ZvWubD1o9befK8H699vl-58" style="edgeStyle=orthogonalEdgeStyle;rounded=0;orthogonalLoop=1;jettySize=auto;html=1;exitX=0.5;exitY=1;exitDx=0;exitDy=0;entryX=0.5;entryY=0;entryDx=0;entryDy=0;endArrow=none;endFill=0;" parent="1" source="ZvWubD1o9befK8H699vl-55" target="ZvWubD1o9befK8H699vl-3" edge="1">
          <mxGeometry relative="1" as="geometry" />
        </mxCell>
        <mxCell id="ZvWubD1o9befK8H699vl-55" value="" style="ellipse;whiteSpace=wrap;html=1;aspect=fixed;" parent="1" vertex="1">
          <mxGeometry x="705" y="178" width="10" height="10" as="geometry" />
        </mxCell>
        <mxCell id="ZvWubD1o9befK8H699vl-56" value="Nombre" style="text;html=1;strokeColor=none;fillColor=none;align=center;verticalAlign=middle;whiteSpace=wrap;rounded=0;" parent="1" vertex="1">
          <mxGeometry x="635" y="144" width="50" height="8" as="geometry" />
        </mxCell>
        <mxCell id="ZvWubD1o9befK8H699vl-57" value="Fecha_naci" style="text;html=1;strokeColor=none;fillColor=none;align=center;verticalAlign=middle;whiteSpace=wrap;rounded=0;" parent="1" vertex="1">
          <mxGeometry x="685" y="164" width="65" height="14" as="geometry" />
        </mxCell>
        <mxCell id="ZvWubD1o9befK8H699vl-59" value="" style="endArrow=none;html=1;rounded=0;" parent="1" source="ZvWubD1o9befK8H699vl-64" edge="1">
          <mxGeometry width="50" height="50" relative="1" as="geometry">
            <mxPoint x="650" y="210" as="sourcePoint" />
            <mxPoint x="740" y="210" as="targetPoint" />
          </mxGeometry>
        </mxCell>
        <mxCell id="ZvWubD1o9befK8H699vl-60" value="" style="ellipse;whiteSpace=wrap;html=1;aspect=fixed;fillColor=#000000;" parent="1" vertex="1">
          <mxGeometry x="740" y="205" width="10" height="10" as="geometry" />
        </mxCell>
        <mxCell id="ZvWubD1o9befK8H699vl-61" value="" style="endArrow=none;html=1;rounded=0;" parent="1" target="ZvWubD1o9befK8H699vl-62" edge="1">
          <mxGeometry width="50" height="50" relative="1" as="geometry">
            <mxPoint x="650" y="210" as="sourcePoint" />
            <mxPoint x="740" y="210" as="targetPoint" />
          </mxGeometry>
        </mxCell>
        <mxCell id="ZvWubD1o9befK8H699vl-62" value="" style="ellipse;whiteSpace=wrap;html=1;aspect=fixed;fillColor=#000000;" parent="1" vertex="1">
          <mxGeometry x="657.5" y="207.5" width="5" height="5" as="geometry" />
        </mxCell>
        <mxCell id="ZvWubD1o9befK8H699vl-63" value="" style="endArrow=none;html=1;rounded=0;" parent="1" source="ZvWubD1o9befK8H699vl-62" target="ZvWubD1o9befK8H699vl-64" edge="1">
          <mxGeometry width="50" height="50" relative="1" as="geometry">
            <mxPoint x="663" y="210" as="sourcePoint" />
            <mxPoint x="740" y="210" as="targetPoint" />
          </mxGeometry>
        </mxCell>
        <mxCell id="ZvWubD1o9befK8H699vl-64" value="" style="ellipse;whiteSpace=wrap;html=1;aspect=fixed;fillColor=#000000;" parent="1" vertex="1">
          <mxGeometry x="707.5" y="207.5" width="5" height="5" as="geometry" />
        </mxCell>
        <mxCell id="ZvWubD1o9befK8H699vl-65" value="(1,n)" style="text;html=1;strokeColor=none;fillColor=none;align=center;verticalAlign=middle;whiteSpace=wrap;rounded=0;" parent="1" vertex="1">
          <mxGeometry x="124" y="237" width="25" height="10" as="geometry" />
        </mxCell>
        <mxCell id="ZvWubD1o9befK8H699vl-66" value="(1,n)" style="text;html=1;strokeColor=none;fillColor=none;align=center;verticalAlign=middle;whiteSpace=wrap;rounded=0;" parent="1" vertex="1">
          <mxGeometry x="309" y="237" width="25" height="10" as="geometry" />
        </mxCell>
        <mxCell id="ZvWubD1o9befK8H699vl-67" value="(1,1)" style="text;html=1;strokeColor=none;fillColor=none;align=center;verticalAlign=middle;whiteSpace=wrap;rounded=0;" parent="1" vertex="1">
          <mxGeometry x="442" y="237" width="25" height="10" as="geometry" />
        </mxCell>
        <mxCell id="ZvWubD1o9befK8H699vl-68" value="(1,n)" style="text;html=1;strokeColor=none;fillColor=none;align=center;verticalAlign=middle;whiteSpace=wrap;rounded=0;" parent="1" vertex="1">
          <mxGeometry x="632" y="237" width="25" height="10" as="geometry" />
        </mxCell>
        <mxCell id="-kc0M5f4T7qdMmToroDp-1" value="N:M" style="text;html=1;strokeColor=none;fillColor=none;align=center;verticalAlign=middle;whiteSpace=wrap;rounded=0;fontStyle=1;fontColor=#FF0000;" vertex="1" parent="1">
          <mxGeometry x="215" y="198.5" width="30" height="15" as="geometry" />
        </mxCell>
        <mxCell id="-kc0M5f4T7qdMmToroDp-2" value="N:1" style="text;html=1;strokeColor=none;fillColor=none;align=center;verticalAlign=middle;whiteSpace=wrap;rounded=0;fontStyle=1;fontColor=#FF0000;" vertex="1" parent="1">
          <mxGeometry x="535" y="200.5" width="30" height="15" as="geometry" />
        </mxCell>
      </root>
    </mxGraphModel>
  </diagram>
  <diagram id="9lboRr9aPYP1Yb2u0_Dd" name="ESQUEMA LÓGICO">
    <mxGraphModel dx="794" dy="564" grid="1" gridSize="10" guides="1" tooltips="1" connect="1" arrows="1" fold="1" page="1" pageScale="1" pageWidth="827" pageHeight="1169" math="0" shadow="0">
      <root>
        <mxCell id="0" />
        <mxCell id="1" parent="0" />
        <mxCell id="c4gCtp2FfZ46eNcWPrZb-1" value="EXPOSICIONES" style="shape=table;startSize=30;container=1;collapsible=1;childLayout=tableLayout;fixedRows=1;rowLines=0;fontStyle=1;align=center;resizeLast=1;html=1;" parent="1" vertex="1">
          <mxGeometry x="80" y="420" width="180" height="150" as="geometry" />
        </mxCell>
        <mxCell id="c4gCtp2FfZ46eNcWPrZb-2" value="" style="shape=tableRow;horizontal=0;startSize=0;swimlaneHead=0;swimlaneBody=0;fillColor=none;collapsible=0;dropTarget=0;points=[[0,0.5],[1,0.5]];portConstraint=eastwest;top=0;left=0;right=0;bottom=1;" parent="c4gCtp2FfZ46eNcWPrZb-1" vertex="1">
          <mxGeometry y="30" width="180" height="30" as="geometry" />
        </mxCell>
        <mxCell id="c4gCtp2FfZ46eNcWPrZb-3" value="PK" style="shape=partialRectangle;connectable=0;fillColor=none;top=0;left=0;bottom=0;right=0;fontStyle=1;overflow=hidden;whiteSpace=wrap;html=1;" parent="c4gCtp2FfZ46eNcWPrZb-2" vertex="1">
          <mxGeometry width="30" height="30" as="geometry">
            <mxRectangle width="30" height="30" as="alternateBounds" />
          </mxGeometry>
        </mxCell>
        <mxCell id="c4gCtp2FfZ46eNcWPrZb-4" value="ID_exposición" style="shape=partialRectangle;connectable=0;fillColor=none;top=0;left=0;bottom=0;right=0;align=left;spacingLeft=6;fontStyle=5;overflow=hidden;whiteSpace=wrap;html=1;" parent="c4gCtp2FfZ46eNcWPrZb-2" vertex="1">
          <mxGeometry x="30" width="150" height="30" as="geometry">
            <mxRectangle width="150" height="30" as="alternateBounds" />
          </mxGeometry>
        </mxCell>
        <mxCell id="c4gCtp2FfZ46eNcWPrZb-5" value="" style="shape=tableRow;horizontal=0;startSize=0;swimlaneHead=0;swimlaneBody=0;fillColor=none;collapsible=0;dropTarget=0;points=[[0,0.5],[1,0.5]];portConstraint=eastwest;top=0;left=0;right=0;bottom=0;" parent="c4gCtp2FfZ46eNcWPrZb-1" vertex="1">
          <mxGeometry y="60" width="180" height="30" as="geometry" />
        </mxCell>
        <mxCell id="c4gCtp2FfZ46eNcWPrZb-6" value="" style="shape=partialRectangle;connectable=0;fillColor=none;top=0;left=0;bottom=0;right=0;editable=1;overflow=hidden;whiteSpace=wrap;html=1;" parent="c4gCtp2FfZ46eNcWPrZb-5" vertex="1">
          <mxGeometry width="30" height="30" as="geometry">
            <mxRectangle width="30" height="30" as="alternateBounds" />
          </mxGeometry>
        </mxCell>
        <mxCell id="c4gCtp2FfZ46eNcWPrZb-7" value="Título" style="shape=partialRectangle;connectable=0;fillColor=none;top=0;left=0;bottom=0;right=0;align=left;spacingLeft=6;overflow=hidden;whiteSpace=wrap;html=1;" parent="c4gCtp2FfZ46eNcWPrZb-5" vertex="1">
          <mxGeometry x="30" width="150" height="30" as="geometry">
            <mxRectangle width="150" height="30" as="alternateBounds" />
          </mxGeometry>
        </mxCell>
        <mxCell id="c4gCtp2FfZ46eNcWPrZb-8" value="" style="shape=tableRow;horizontal=0;startSize=0;swimlaneHead=0;swimlaneBody=0;fillColor=none;collapsible=0;dropTarget=0;points=[[0,0.5],[1,0.5]];portConstraint=eastwest;top=0;left=0;right=0;bottom=0;" parent="c4gCtp2FfZ46eNcWPrZb-1" vertex="1">
          <mxGeometry y="90" width="180" height="30" as="geometry" />
        </mxCell>
        <mxCell id="c4gCtp2FfZ46eNcWPrZb-9" value="" style="shape=partialRectangle;connectable=0;fillColor=none;top=0;left=0;bottom=0;right=0;editable=1;overflow=hidden;whiteSpace=wrap;html=1;" parent="c4gCtp2FfZ46eNcWPrZb-8" vertex="1">
          <mxGeometry width="30" height="30" as="geometry">
            <mxRectangle width="30" height="30" as="alternateBounds" />
          </mxGeometry>
        </mxCell>
        <mxCell id="c4gCtp2FfZ46eNcWPrZb-10" value="Descripción" style="shape=partialRectangle;connectable=0;fillColor=none;top=0;left=0;bottom=0;right=0;align=left;spacingLeft=6;overflow=hidden;whiteSpace=wrap;html=1;" parent="c4gCtp2FfZ46eNcWPrZb-8" vertex="1">
          <mxGeometry x="30" width="150" height="30" as="geometry">
            <mxRectangle width="150" height="30" as="alternateBounds" />
          </mxGeometry>
        </mxCell>
        <mxCell id="c4gCtp2FfZ46eNcWPrZb-11" value="" style="shape=tableRow;horizontal=0;startSize=0;swimlaneHead=0;swimlaneBody=0;fillColor=none;collapsible=0;dropTarget=0;points=[[0,0.5],[1,0.5]];portConstraint=eastwest;top=0;left=0;right=0;bottom=0;" parent="c4gCtp2FfZ46eNcWPrZb-1" vertex="1">
          <mxGeometry y="120" width="180" height="30" as="geometry" />
        </mxCell>
        <mxCell id="c4gCtp2FfZ46eNcWPrZb-12" value="" style="shape=partialRectangle;connectable=0;fillColor=none;top=0;left=0;bottom=0;right=0;editable=1;overflow=hidden;whiteSpace=wrap;html=1;" parent="c4gCtp2FfZ46eNcWPrZb-11" vertex="1">
          <mxGeometry width="30" height="30" as="geometry">
            <mxRectangle width="30" height="30" as="alternateBounds" />
          </mxGeometry>
        </mxCell>
        <mxCell id="c4gCtp2FfZ46eNcWPrZb-13" value="Fecha_inauguración" style="shape=partialRectangle;connectable=0;fillColor=none;top=0;left=0;bottom=0;right=0;align=left;spacingLeft=6;overflow=hidden;whiteSpace=wrap;html=1;" parent="c4gCtp2FfZ46eNcWPrZb-11" vertex="1">
          <mxGeometry x="30" width="150" height="30" as="geometry">
            <mxRectangle width="150" height="30" as="alternateBounds" />
          </mxGeometry>
        </mxCell>
        <mxCell id="9rcpjFsS48uC6yrNWCzw-1" value="FECHAS_CLAUSURA" style="shape=table;startSize=30;container=1;collapsible=1;childLayout=tableLayout;fixedRows=1;rowLines=0;fontStyle=1;align=center;resizeLast=1;html=1;" parent="1" vertex="1">
          <mxGeometry x="80" y="270" width="180" height="120" as="geometry" />
        </mxCell>
        <mxCell id="9rcpjFsS48uC6yrNWCzw-17" value="" style="shape=tableRow;horizontal=0;startSize=0;swimlaneHead=0;swimlaneBody=0;fillColor=none;collapsible=0;dropTarget=0;points=[[0,0.5],[1,0.5]];portConstraint=eastwest;top=0;left=0;right=0;bottom=0;" parent="9rcpjFsS48uC6yrNWCzw-1" vertex="1">
          <mxGeometry y="30" width="180" height="30" as="geometry" />
        </mxCell>
        <mxCell id="9rcpjFsS48uC6yrNWCzw-18" value="PK" style="shape=partialRectangle;connectable=0;fillColor=none;top=0;left=0;bottom=0;right=0;fontStyle=1;overflow=hidden;whiteSpace=wrap;html=1;" parent="9rcpjFsS48uC6yrNWCzw-17" vertex="1">
          <mxGeometry width="30" height="30" as="geometry">
            <mxRectangle width="30" height="30" as="alternateBounds" />
          </mxGeometry>
        </mxCell>
        <mxCell id="9rcpjFsS48uC6yrNWCzw-19" value="ID_fecha_clausura" style="shape=partialRectangle;connectable=0;fillColor=none;top=0;left=0;bottom=0;right=0;align=left;spacingLeft=6;fontStyle=5;overflow=hidden;whiteSpace=wrap;html=1;" parent="9rcpjFsS48uC6yrNWCzw-17" vertex="1">
          <mxGeometry x="30" width="150" height="30" as="geometry">
            <mxRectangle width="150" height="30" as="alternateBounds" />
          </mxGeometry>
        </mxCell>
        <mxCell id="9rcpjFsS48uC6yrNWCzw-2" value="" style="shape=tableRow;horizontal=0;startSize=0;swimlaneHead=0;swimlaneBody=0;fillColor=none;collapsible=0;dropTarget=0;points=[[0,0.5],[1,0.5]];portConstraint=eastwest;top=0;left=0;right=0;bottom=1;" parent="9rcpjFsS48uC6yrNWCzw-1" vertex="1">
          <mxGeometry y="60" width="180" height="30" as="geometry" />
        </mxCell>
        <mxCell id="9rcpjFsS48uC6yrNWCzw-3" value="FK" style="shape=partialRectangle;connectable=0;fillColor=none;top=0;left=0;bottom=0;right=0;fontStyle=0;overflow=hidden;whiteSpace=wrap;html=1;" parent="9rcpjFsS48uC6yrNWCzw-2" vertex="1">
          <mxGeometry width="30" height="30" as="geometry">
            <mxRectangle width="30" height="30" as="alternateBounds" />
          </mxGeometry>
        </mxCell>
        <mxCell id="9rcpjFsS48uC6yrNWCzw-4" value="ID_exposición" style="shape=partialRectangle;connectable=0;fillColor=none;top=0;left=0;bottom=0;right=0;align=left;spacingLeft=6;fontStyle=4;overflow=hidden;whiteSpace=wrap;html=1;" parent="9rcpjFsS48uC6yrNWCzw-2" vertex="1">
          <mxGeometry x="30" width="150" height="30" as="geometry">
            <mxRectangle width="150" height="30" as="alternateBounds" />
          </mxGeometry>
        </mxCell>
        <mxCell id="9rcpjFsS48uC6yrNWCzw-11" value="" style="shape=tableRow;horizontal=0;startSize=0;swimlaneHead=0;swimlaneBody=0;fillColor=none;collapsible=0;dropTarget=0;points=[[0,0.5],[1,0.5]];portConstraint=eastwest;top=0;left=0;right=0;bottom=0;" parent="9rcpjFsS48uC6yrNWCzw-1" vertex="1">
          <mxGeometry y="90" width="180" height="30" as="geometry" />
        </mxCell>
        <mxCell id="9rcpjFsS48uC6yrNWCzw-12" value="" style="shape=partialRectangle;connectable=0;fillColor=none;top=0;left=0;bottom=0;right=0;editable=1;overflow=hidden;whiteSpace=wrap;html=1;" parent="9rcpjFsS48uC6yrNWCzw-11" vertex="1">
          <mxGeometry width="30" height="30" as="geometry">
            <mxRectangle width="30" height="30" as="alternateBounds" />
          </mxGeometry>
        </mxCell>
        <mxCell id="9rcpjFsS48uC6yrNWCzw-13" value="Fecha" style="shape=partialRectangle;connectable=0;fillColor=none;top=0;left=0;bottom=0;right=0;align=left;spacingLeft=6;overflow=hidden;whiteSpace=wrap;html=1;" parent="9rcpjFsS48uC6yrNWCzw-11" vertex="1">
          <mxGeometry x="30" width="150" height="30" as="geometry">
            <mxRectangle width="150" height="30" as="alternateBounds" />
          </mxGeometry>
        </mxCell>
        <mxCell id="9rcpjFsS48uC6yrNWCzw-20" style="edgeStyle=orthogonalEdgeStyle;rounded=0;orthogonalLoop=1;jettySize=auto;html=1;exitX=0;exitY=0.5;exitDx=0;exitDy=0;entryX=0;entryY=0.5;entryDx=0;entryDy=0;endArrow=none;endFill=0;" parent="1" source="c4gCtp2FfZ46eNcWPrZb-2" target="9rcpjFsS48uC6yrNWCzw-2" edge="1">
          <mxGeometry relative="1" as="geometry" />
        </mxCell>
        <mxCell id="9rcpjFsS48uC6yrNWCzw-21" value="1" style="text;html=1;strokeColor=none;fillColor=none;align=center;verticalAlign=middle;whiteSpace=wrap;rounded=0;" parent="1" vertex="1">
          <mxGeometry x="70" y="320" width="10" height="20" as="geometry" />
        </mxCell>
        <mxCell id="9rcpjFsS48uC6yrNWCzw-22" value="1" style="text;html=1;strokeColor=none;fillColor=none;align=center;verticalAlign=middle;whiteSpace=wrap;rounded=0;" parent="1" vertex="1">
          <mxGeometry x="70" y="466" width="10" height="20" as="geometry" />
        </mxCell>
        <mxCell id="C6RfbS4eQZ4HKU1gtF4--1" value="ESTILOS" style="shape=table;startSize=30;container=1;collapsible=1;childLayout=tableLayout;fixedRows=1;rowLines=0;fontStyle=1;align=center;resizeLast=1;html=1;" parent="1" vertex="1">
          <mxGeometry x="340" y="270" width="180" height="120" as="geometry" />
        </mxCell>
        <mxCell id="C6RfbS4eQZ4HKU1gtF4--17" value="" style="shape=tableRow;horizontal=0;startSize=0;swimlaneHead=0;swimlaneBody=0;fillColor=none;collapsible=0;dropTarget=0;points=[[0,0.5],[1,0.5]];portConstraint=eastwest;top=0;left=0;right=0;bottom=0;" parent="C6RfbS4eQZ4HKU1gtF4--1" vertex="1">
          <mxGeometry y="30" width="180" height="30" as="geometry" />
        </mxCell>
        <mxCell id="C6RfbS4eQZ4HKU1gtF4--18" value="PK" style="shape=partialRectangle;connectable=0;fillColor=none;top=0;left=0;bottom=0;right=0;fontStyle=1;overflow=hidden;whiteSpace=wrap;html=1;" parent="C6RfbS4eQZ4HKU1gtF4--17" vertex="1">
          <mxGeometry width="30" height="30" as="geometry">
            <mxRectangle width="30" height="30" as="alternateBounds" />
          </mxGeometry>
        </mxCell>
        <mxCell id="C6RfbS4eQZ4HKU1gtF4--19" value="ID_estilo" style="shape=partialRectangle;connectable=0;fillColor=none;top=0;left=0;bottom=0;right=0;align=left;spacingLeft=6;fontStyle=5;overflow=hidden;whiteSpace=wrap;html=1;" parent="C6RfbS4eQZ4HKU1gtF4--17" vertex="1">
          <mxGeometry x="30" width="150" height="30" as="geometry">
            <mxRectangle width="150" height="30" as="alternateBounds" />
          </mxGeometry>
        </mxCell>
        <mxCell id="C6RfbS4eQZ4HKU1gtF4--2" value="" style="shape=tableRow;horizontal=0;startSize=0;swimlaneHead=0;swimlaneBody=0;fillColor=none;collapsible=0;dropTarget=0;points=[[0,0.5],[1,0.5]];portConstraint=eastwest;top=0;left=0;right=0;bottom=1;" parent="C6RfbS4eQZ4HKU1gtF4--1" vertex="1">
          <mxGeometry y="60" width="180" height="30" as="geometry" />
        </mxCell>
        <mxCell id="C6RfbS4eQZ4HKU1gtF4--3" value="FK" style="shape=partialRectangle;connectable=0;fillColor=none;top=0;left=0;bottom=0;right=0;fontStyle=0;overflow=hidden;whiteSpace=wrap;html=1;" parent="C6RfbS4eQZ4HKU1gtF4--2" vertex="1">
          <mxGeometry width="30" height="30" as="geometry">
            <mxRectangle width="30" height="30" as="alternateBounds" />
          </mxGeometry>
        </mxCell>
        <mxCell id="C6RfbS4eQZ4HKU1gtF4--4" value="Número_registro" style="shape=partialRectangle;connectable=0;fillColor=none;top=0;left=0;bottom=0;right=0;align=left;spacingLeft=6;fontStyle=0;overflow=hidden;whiteSpace=wrap;html=1;" parent="C6RfbS4eQZ4HKU1gtF4--2" vertex="1">
          <mxGeometry x="30" width="150" height="30" as="geometry">
            <mxRectangle width="150" height="30" as="alternateBounds" />
          </mxGeometry>
        </mxCell>
        <mxCell id="C6RfbS4eQZ4HKU1gtF4--5" value="" style="shape=tableRow;horizontal=0;startSize=0;swimlaneHead=0;swimlaneBody=0;fillColor=none;collapsible=0;dropTarget=0;points=[[0,0.5],[1,0.5]];portConstraint=eastwest;top=0;left=0;right=0;bottom=0;" parent="C6RfbS4eQZ4HKU1gtF4--1" vertex="1">
          <mxGeometry y="90" width="180" height="30" as="geometry" />
        </mxCell>
        <mxCell id="C6RfbS4eQZ4HKU1gtF4--6" value="" style="shape=partialRectangle;connectable=0;fillColor=none;top=0;left=0;bottom=0;right=0;editable=1;overflow=hidden;whiteSpace=wrap;html=1;" parent="C6RfbS4eQZ4HKU1gtF4--5" vertex="1">
          <mxGeometry width="30" height="30" as="geometry">
            <mxRectangle width="30" height="30" as="alternateBounds" />
          </mxGeometry>
        </mxCell>
        <mxCell id="C6RfbS4eQZ4HKU1gtF4--7" value="Nombre_estilo" style="shape=partialRectangle;connectable=0;fillColor=none;top=0;left=0;bottom=0;right=0;align=left;spacingLeft=6;overflow=hidden;whiteSpace=wrap;html=1;" parent="C6RfbS4eQZ4HKU1gtF4--5" vertex="1">
          <mxGeometry x="30" width="150" height="30" as="geometry">
            <mxRectangle width="150" height="30" as="alternateBounds" />
          </mxGeometry>
        </mxCell>
        <mxCell id="9rcpjFsS48uC6yrNWCzw-23" value="OBRAS" style="shape=table;startSize=30;container=1;collapsible=1;childLayout=tableLayout;fixedRows=1;rowLines=0;fontStyle=1;align=center;resizeLast=1;html=1;" parent="1" vertex="1">
          <mxGeometry x="589.97" y="410" width="180" height="150" as="geometry" />
        </mxCell>
        <mxCell id="UoIx4VkCo5RTUE-HzF3u-1" value="" style="shape=tableRow;horizontal=0;startSize=0;swimlaneHead=0;swimlaneBody=0;fillColor=none;collapsible=0;dropTarget=0;points=[[0,0.5],[1,0.5]];portConstraint=eastwest;top=0;left=0;right=0;bottom=0;" parent="9rcpjFsS48uC6yrNWCzw-23" vertex="1">
          <mxGeometry y="30" width="180" height="30" as="geometry" />
        </mxCell>
        <mxCell id="UoIx4VkCo5RTUE-HzF3u-2" value="PK" style="shape=partialRectangle;connectable=0;fillColor=none;top=0;left=0;bottom=0;right=0;fontStyle=1;overflow=hidden;whiteSpace=wrap;html=1;" parent="UoIx4VkCo5RTUE-HzF3u-1" vertex="1">
          <mxGeometry width="30" height="30" as="geometry">
            <mxRectangle width="30" height="30" as="alternateBounds" />
          </mxGeometry>
        </mxCell>
        <mxCell id="UoIx4VkCo5RTUE-HzF3u-3" value="Número_registro" style="shape=partialRectangle;connectable=0;fillColor=none;top=0;left=0;bottom=0;right=0;align=left;spacingLeft=6;fontStyle=5;overflow=hidden;whiteSpace=wrap;html=1;" parent="UoIx4VkCo5RTUE-HzF3u-1" vertex="1">
          <mxGeometry x="30" width="150" height="30" as="geometry">
            <mxRectangle width="150" height="30" as="alternateBounds" />
          </mxGeometry>
        </mxCell>
        <mxCell id="9rcpjFsS48uC6yrNWCzw-24" value="" style="shape=tableRow;horizontal=0;startSize=0;swimlaneHead=0;swimlaneBody=0;fillColor=none;collapsible=0;dropTarget=0;points=[[0,0.5],[1,0.5]];portConstraint=eastwest;top=0;left=0;right=0;bottom=1;" parent="9rcpjFsS48uC6yrNWCzw-23" vertex="1">
          <mxGeometry y="60" width="180" height="30" as="geometry" />
        </mxCell>
        <mxCell id="9rcpjFsS48uC6yrNWCzw-25" value="FK" style="shape=partialRectangle;connectable=0;fillColor=none;top=0;left=0;bottom=0;right=0;fontStyle=0;overflow=hidden;whiteSpace=wrap;html=1;" parent="9rcpjFsS48uC6yrNWCzw-24" vertex="1">
          <mxGeometry width="30" height="30" as="geometry">
            <mxRectangle width="30" height="30" as="alternateBounds" />
          </mxGeometry>
        </mxCell>
        <mxCell id="9rcpjFsS48uC6yrNWCzw-26" value="ID_artista" style="shape=partialRectangle;connectable=0;fillColor=none;top=0;left=0;bottom=0;right=0;align=left;spacingLeft=6;fontStyle=0;overflow=hidden;whiteSpace=wrap;html=1;" parent="9rcpjFsS48uC6yrNWCzw-24" vertex="1">
          <mxGeometry x="30" width="150" height="30" as="geometry">
            <mxRectangle width="150" height="30" as="alternateBounds" />
          </mxGeometry>
        </mxCell>
        <mxCell id="9rcpjFsS48uC6yrNWCzw-27" value="" style="shape=tableRow;horizontal=0;startSize=0;swimlaneHead=0;swimlaneBody=0;fillColor=none;collapsible=0;dropTarget=0;points=[[0,0.5],[1,0.5]];portConstraint=eastwest;top=0;left=0;right=0;bottom=0;" parent="9rcpjFsS48uC6yrNWCzw-23" vertex="1">
          <mxGeometry y="90" width="180" height="30" as="geometry" />
        </mxCell>
        <mxCell id="9rcpjFsS48uC6yrNWCzw-28" value="" style="shape=partialRectangle;connectable=0;fillColor=none;top=0;left=0;bottom=0;right=0;editable=1;overflow=hidden;whiteSpace=wrap;html=1;" parent="9rcpjFsS48uC6yrNWCzw-27" vertex="1">
          <mxGeometry width="30" height="30" as="geometry">
            <mxRectangle width="30" height="30" as="alternateBounds" />
          </mxGeometry>
        </mxCell>
        <mxCell id="9rcpjFsS48uC6yrNWCzw-29" value="Título" style="shape=partialRectangle;connectable=0;fillColor=none;top=0;left=0;bottom=0;right=0;align=left;spacingLeft=6;overflow=hidden;whiteSpace=wrap;html=1;" parent="9rcpjFsS48uC6yrNWCzw-27" vertex="1">
          <mxGeometry x="30" width="150" height="30" as="geometry">
            <mxRectangle width="150" height="30" as="alternateBounds" />
          </mxGeometry>
        </mxCell>
        <mxCell id="9rcpjFsS48uC6yrNWCzw-33" value="" style="shape=tableRow;horizontal=0;startSize=0;swimlaneHead=0;swimlaneBody=0;fillColor=none;collapsible=0;dropTarget=0;points=[[0,0.5],[1,0.5]];portConstraint=eastwest;top=0;left=0;right=0;bottom=0;" parent="9rcpjFsS48uC6yrNWCzw-23" vertex="1">
          <mxGeometry y="120" width="180" height="30" as="geometry" />
        </mxCell>
        <mxCell id="9rcpjFsS48uC6yrNWCzw-34" value="" style="shape=partialRectangle;connectable=0;fillColor=none;top=0;left=0;bottom=0;right=0;editable=1;overflow=hidden;whiteSpace=wrap;html=1;" parent="9rcpjFsS48uC6yrNWCzw-33" vertex="1">
          <mxGeometry width="30" height="30" as="geometry">
            <mxRectangle width="30" height="30" as="alternateBounds" />
          </mxGeometry>
        </mxCell>
        <mxCell id="9rcpjFsS48uC6yrNWCzw-35" value="Precio" style="shape=partialRectangle;connectable=0;fillColor=none;top=0;left=0;bottom=0;right=0;align=left;spacingLeft=6;overflow=hidden;whiteSpace=wrap;html=1;" parent="9rcpjFsS48uC6yrNWCzw-33" vertex="1">
          <mxGeometry x="30" width="150" height="30" as="geometry">
            <mxRectangle width="150" height="30" as="alternateBounds" />
          </mxGeometry>
        </mxCell>
        <mxCell id="C6RfbS4eQZ4HKU1gtF4--34" value="1" style="text;html=1;strokeColor=none;fillColor=none;align=center;verticalAlign=middle;whiteSpace=wrap;rounded=0;" parent="1" vertex="1">
          <mxGeometry x="575.97" y="490" width="10" height="20" as="geometry" />
        </mxCell>
        <mxCell id="C6RfbS4eQZ4HKU1gtF4--35" value="n" style="text;html=1;strokeColor=none;fillColor=none;align=center;verticalAlign=middle;whiteSpace=wrap;rounded=0;" parent="1" vertex="1">
          <mxGeometry x="575.97" y="640" width="10" height="20" as="geometry" />
        </mxCell>
        <mxCell id="C6RfbS4eQZ4HKU1gtF4--36" value="EXPOSICIONES_OBRAS" style="shape=table;startSize=30;container=1;collapsible=1;childLayout=tableLayout;fixedRows=1;rowLines=0;fontStyle=1;align=center;resizeLast=1;html=1;whiteSpace=wrap;" parent="1" vertex="1">
          <mxGeometry x="330" y="410" width="180" height="90" as="geometry" />
        </mxCell>
        <mxCell id="C6RfbS4eQZ4HKU1gtF4--37" value="" style="shape=tableRow;horizontal=0;startSize=0;swimlaneHead=0;swimlaneBody=0;fillColor=none;collapsible=0;dropTarget=0;points=[[0,0.5],[1,0.5]];portConstraint=eastwest;top=0;left=0;right=0;bottom=0;html=1;" parent="C6RfbS4eQZ4HKU1gtF4--36" vertex="1">
          <mxGeometry y="30" width="180" height="30" as="geometry" />
        </mxCell>
        <mxCell id="C6RfbS4eQZ4HKU1gtF4--38" value="FK" style="shape=partialRectangle;connectable=0;fillColor=none;top=0;left=0;bottom=0;right=0;fontStyle=0;overflow=hidden;html=1;whiteSpace=wrap;" parent="C6RfbS4eQZ4HKU1gtF4--37" vertex="1">
          <mxGeometry width="30" height="30" as="geometry">
            <mxRectangle width="30" height="30" as="alternateBounds" />
          </mxGeometry>
        </mxCell>
        <mxCell id="C6RfbS4eQZ4HKU1gtF4--39" value="ID_exposición" style="shape=partialRectangle;connectable=0;fillColor=none;top=0;left=0;bottom=0;right=0;align=left;spacingLeft=6;fontStyle=0;overflow=hidden;html=1;whiteSpace=wrap;" parent="C6RfbS4eQZ4HKU1gtF4--37" vertex="1">
          <mxGeometry x="30" width="150" height="30" as="geometry">
            <mxRectangle width="150" height="30" as="alternateBounds" />
          </mxGeometry>
        </mxCell>
        <mxCell id="C6RfbS4eQZ4HKU1gtF4--40" value="" style="shape=tableRow;horizontal=0;startSize=0;swimlaneHead=0;swimlaneBody=0;fillColor=none;collapsible=0;dropTarget=0;points=[[0,0.5],[1,0.5]];portConstraint=eastwest;top=0;left=0;right=0;bottom=1;html=1;" parent="C6RfbS4eQZ4HKU1gtF4--36" vertex="1">
          <mxGeometry y="60" width="180" height="30" as="geometry" />
        </mxCell>
        <mxCell id="C6RfbS4eQZ4HKU1gtF4--41" value="FK" style="shape=partialRectangle;connectable=0;fillColor=none;top=0;left=0;bottom=0;right=0;fontStyle=0;overflow=hidden;html=1;whiteSpace=wrap;" parent="C6RfbS4eQZ4HKU1gtF4--40" vertex="1">
          <mxGeometry width="30" height="30" as="geometry">
            <mxRectangle width="30" height="30" as="alternateBounds" />
          </mxGeometry>
        </mxCell>
        <mxCell id="C6RfbS4eQZ4HKU1gtF4--42" value="Número_registro" style="shape=partialRectangle;connectable=0;fillColor=none;top=0;left=0;bottom=0;right=0;align=left;spacingLeft=6;fontStyle=0;overflow=hidden;html=1;whiteSpace=wrap;" parent="C6RfbS4eQZ4HKU1gtF4--40" vertex="1">
          <mxGeometry x="30" width="150" height="30" as="geometry">
            <mxRectangle width="150" height="30" as="alternateBounds" />
          </mxGeometry>
        </mxCell>
        <mxCell id="C6RfbS4eQZ4HKU1gtF4--49" style="edgeStyle=orthogonalEdgeStyle;rounded=0;orthogonalLoop=1;jettySize=auto;html=1;exitX=1;exitY=0.5;exitDx=0;exitDy=0;entryX=0;entryY=0.5;entryDx=0;entryDy=0;" parent="1" source="c4gCtp2FfZ46eNcWPrZb-2" target="C6RfbS4eQZ4HKU1gtF4--37" edge="1">
          <mxGeometry relative="1" as="geometry" />
        </mxCell>
        <mxCell id="C6RfbS4eQZ4HKU1gtF4--50" style="edgeStyle=orthogonalEdgeStyle;rounded=0;orthogonalLoop=1;jettySize=auto;html=1;exitX=0;exitY=0.5;exitDx=0;exitDy=0;entryX=1;entryY=0.5;entryDx=0;entryDy=0;" parent="1" source="9rcpjFsS48uC6yrNWCzw-24" target="C6RfbS4eQZ4HKU1gtF4--40" edge="1">
          <mxGeometry relative="1" as="geometry" />
        </mxCell>
        <mxCell id="C6RfbS4eQZ4HKU1gtF4--51" value="1" style="text;html=1;strokeColor=none;fillColor=none;align=center;verticalAlign=middle;whiteSpace=wrap;rounded=0;" parent="1" vertex="1">
          <mxGeometry x="576" y="464" width="10" height="20" as="geometry" />
        </mxCell>
        <mxCell id="C6RfbS4eQZ4HKU1gtF4--52" value="n" style="text;html=1;strokeColor=none;fillColor=none;align=center;verticalAlign=middle;whiteSpace=wrap;rounded=0;" parent="1" vertex="1">
          <mxGeometry x="520" y="466" width="10" height="20" as="geometry" />
        </mxCell>
        <mxCell id="C6RfbS4eQZ4HKU1gtF4--53" value="1" style="text;html=1;strokeColor=none;fillColor=none;align=center;verticalAlign=middle;whiteSpace=wrap;rounded=0;" parent="1" vertex="1">
          <mxGeometry x="261" y="467" width="10" height="20" as="geometry" />
        </mxCell>
        <mxCell id="C6RfbS4eQZ4HKU1gtF4--54" value="n" style="text;html=1;strokeColor=none;fillColor=none;align=center;verticalAlign=middle;whiteSpace=wrap;rounded=0;" parent="1" vertex="1">
          <mxGeometry x="312" y="434" width="10" height="20" as="geometry" />
        </mxCell>
        <mxCell id="C6RfbS4eQZ4HKU1gtF4--56" value="ARTISTAS" style="shape=table;startSize=30;container=1;collapsible=1;childLayout=tableLayout;fixedRows=1;rowLines=0;fontStyle=1;align=center;resizeLast=1;html=1;" parent="1" vertex="1">
          <mxGeometry x="590" y="585" width="180" height="120" as="geometry" />
        </mxCell>
        <mxCell id="C6RfbS4eQZ4HKU1gtF4--57" value="" style="shape=tableRow;horizontal=0;startSize=0;swimlaneHead=0;swimlaneBody=0;fillColor=none;collapsible=0;dropTarget=0;points=[[0,0.5],[1,0.5]];portConstraint=eastwest;top=0;left=0;right=0;bottom=1;" parent="C6RfbS4eQZ4HKU1gtF4--56" vertex="1">
          <mxGeometry y="30" width="180" height="30" as="geometry" />
        </mxCell>
        <mxCell id="C6RfbS4eQZ4HKU1gtF4--58" value="PK" style="shape=partialRectangle;connectable=0;fillColor=none;top=0;left=0;bottom=0;right=0;fontStyle=1;overflow=hidden;whiteSpace=wrap;html=1;" parent="C6RfbS4eQZ4HKU1gtF4--57" vertex="1">
          <mxGeometry width="30" height="30" as="geometry">
            <mxRectangle width="30" height="30" as="alternateBounds" />
          </mxGeometry>
        </mxCell>
        <mxCell id="C6RfbS4eQZ4HKU1gtF4--59" value="ID_artista" style="shape=partialRectangle;connectable=0;fillColor=none;top=0;left=0;bottom=0;right=0;align=left;spacingLeft=6;fontStyle=5;overflow=hidden;whiteSpace=wrap;html=1;" parent="C6RfbS4eQZ4HKU1gtF4--57" vertex="1">
          <mxGeometry x="30" width="150" height="30" as="geometry">
            <mxRectangle width="150" height="30" as="alternateBounds" />
          </mxGeometry>
        </mxCell>
        <mxCell id="C6RfbS4eQZ4HKU1gtF4--60" value="" style="shape=tableRow;horizontal=0;startSize=0;swimlaneHead=0;swimlaneBody=0;fillColor=none;collapsible=0;dropTarget=0;points=[[0,0.5],[1,0.5]];portConstraint=eastwest;top=0;left=0;right=0;bottom=0;" parent="C6RfbS4eQZ4HKU1gtF4--56" vertex="1">
          <mxGeometry y="60" width="180" height="30" as="geometry" />
        </mxCell>
        <mxCell id="C6RfbS4eQZ4HKU1gtF4--61" value="" style="shape=partialRectangle;connectable=0;fillColor=none;top=0;left=0;bottom=0;right=0;editable=1;overflow=hidden;whiteSpace=wrap;html=1;" parent="C6RfbS4eQZ4HKU1gtF4--60" vertex="1">
          <mxGeometry width="30" height="30" as="geometry">
            <mxRectangle width="30" height="30" as="alternateBounds" />
          </mxGeometry>
        </mxCell>
        <mxCell id="C6RfbS4eQZ4HKU1gtF4--62" value="Nombre" style="shape=partialRectangle;connectable=0;fillColor=none;top=0;left=0;bottom=0;right=0;align=left;spacingLeft=6;overflow=hidden;whiteSpace=wrap;html=1;" parent="C6RfbS4eQZ4HKU1gtF4--60" vertex="1">
          <mxGeometry x="30" width="150" height="30" as="geometry">
            <mxRectangle width="150" height="30" as="alternateBounds" />
          </mxGeometry>
        </mxCell>
        <mxCell id="C6RfbS4eQZ4HKU1gtF4--66" value="" style="shape=tableRow;horizontal=0;startSize=0;swimlaneHead=0;swimlaneBody=0;fillColor=none;collapsible=0;dropTarget=0;points=[[0,0.5],[1,0.5]];portConstraint=eastwest;top=0;left=0;right=0;bottom=0;" parent="C6RfbS4eQZ4HKU1gtF4--56" vertex="1">
          <mxGeometry y="90" width="180" height="30" as="geometry" />
        </mxCell>
        <mxCell id="C6RfbS4eQZ4HKU1gtF4--67" value="" style="shape=partialRectangle;connectable=0;fillColor=none;top=0;left=0;bottom=0;right=0;editable=1;overflow=hidden;whiteSpace=wrap;html=1;" parent="C6RfbS4eQZ4HKU1gtF4--66" vertex="1">
          <mxGeometry width="30" height="30" as="geometry">
            <mxRectangle width="30" height="30" as="alternateBounds" />
          </mxGeometry>
        </mxCell>
        <mxCell id="C6RfbS4eQZ4HKU1gtF4--68" value="Fecha_nacimiento" style="shape=partialRectangle;connectable=0;fillColor=none;top=0;left=0;bottom=0;right=0;align=left;spacingLeft=6;overflow=hidden;whiteSpace=wrap;html=1;" parent="C6RfbS4eQZ4HKU1gtF4--66" vertex="1">
          <mxGeometry x="30" width="150" height="30" as="geometry">
            <mxRectangle width="150" height="30" as="alternateBounds" />
          </mxGeometry>
        </mxCell>
        <mxCell id="UoIx4VkCo5RTUE-HzF3u-4" style="edgeStyle=orthogonalEdgeStyle;rounded=0;orthogonalLoop=1;jettySize=auto;html=1;exitX=1;exitY=0.5;exitDx=0;exitDy=0;entryX=1;entryY=0.5;entryDx=0;entryDy=0;" parent="1" source="C6RfbS4eQZ4HKU1gtF4--57" target="9rcpjFsS48uC6yrNWCzw-24" edge="1">
          <mxGeometry relative="1" as="geometry" />
        </mxCell>
        <mxCell id="UoIx4VkCo5RTUE-HzF3u-5" value="1" style="text;html=1;strokeColor=none;fillColor=none;align=center;verticalAlign=middle;whiteSpace=wrap;rounded=0;" parent="1" vertex="1">
          <mxGeometry x="770" y="610" width="10" height="20" as="geometry" />
        </mxCell>
        <mxCell id="UoIx4VkCo5RTUE-HzF3u-6" value="n" style="text;html=1;strokeColor=none;fillColor=none;align=center;verticalAlign=middle;whiteSpace=wrap;rounded=0;" parent="1" vertex="1">
          <mxGeometry x="770" y="466" width="10" height="20" as="geometry" />
        </mxCell>
        <mxCell id="8nepXyaak69FaHob-BBZ-2" value="OBRAS_ESTILOS" style="shape=table;startSize=30;container=1;collapsible=1;childLayout=tableLayout;fixedRows=1;rowLines=0;fontStyle=1;align=center;resizeLast=1;html=1;whiteSpace=wrap;" vertex="1" parent="1">
          <mxGeometry x="590" y="270" width="180" height="90" as="geometry" />
        </mxCell>
        <mxCell id="8nepXyaak69FaHob-BBZ-3" value="" style="shape=tableRow;horizontal=0;startSize=0;swimlaneHead=0;swimlaneBody=0;fillColor=none;collapsible=0;dropTarget=0;points=[[0,0.5],[1,0.5]];portConstraint=eastwest;top=0;left=0;right=0;bottom=0;html=1;" vertex="1" parent="8nepXyaak69FaHob-BBZ-2">
          <mxGeometry y="30" width="180" height="30" as="geometry" />
        </mxCell>
        <mxCell id="8nepXyaak69FaHob-BBZ-4" value="FK" style="shape=partialRectangle;connectable=0;fillColor=none;top=0;left=0;bottom=0;right=0;fontStyle=0;overflow=hidden;html=1;whiteSpace=wrap;" vertex="1" parent="8nepXyaak69FaHob-BBZ-3">
          <mxGeometry width="30" height="30" as="geometry">
            <mxRectangle width="30" height="30" as="alternateBounds" />
          </mxGeometry>
        </mxCell>
        <mxCell id="8nepXyaak69FaHob-BBZ-5" value="Número_registro" style="shape=partialRectangle;connectable=0;fillColor=none;top=0;left=0;bottom=0;right=0;align=left;spacingLeft=6;fontStyle=0;overflow=hidden;html=1;whiteSpace=wrap;" vertex="1" parent="8nepXyaak69FaHob-BBZ-3">
          <mxGeometry x="30" width="150" height="30" as="geometry">
            <mxRectangle width="150" height="30" as="alternateBounds" />
          </mxGeometry>
        </mxCell>
        <mxCell id="8nepXyaak69FaHob-BBZ-6" value="" style="shape=tableRow;horizontal=0;startSize=0;swimlaneHead=0;swimlaneBody=0;fillColor=none;collapsible=0;dropTarget=0;points=[[0,0.5],[1,0.5]];portConstraint=eastwest;top=0;left=0;right=0;bottom=1;html=1;" vertex="1" parent="8nepXyaak69FaHob-BBZ-2">
          <mxGeometry y="60" width="180" height="30" as="geometry" />
        </mxCell>
        <mxCell id="8nepXyaak69FaHob-BBZ-7" value="FK" style="shape=partialRectangle;connectable=0;fillColor=none;top=0;left=0;bottom=0;right=0;fontStyle=0;overflow=hidden;html=1;whiteSpace=wrap;" vertex="1" parent="8nepXyaak69FaHob-BBZ-6">
          <mxGeometry width="30" height="30" as="geometry">
            <mxRectangle width="30" height="30" as="alternateBounds" />
          </mxGeometry>
        </mxCell>
        <mxCell id="8nepXyaak69FaHob-BBZ-8" value="ID_estilo" style="shape=partialRectangle;connectable=0;fillColor=none;top=0;left=0;bottom=0;right=0;align=left;spacingLeft=6;fontStyle=0;overflow=hidden;html=1;whiteSpace=wrap;" vertex="1" parent="8nepXyaak69FaHob-BBZ-6">
          <mxGeometry x="30" width="150" height="30" as="geometry">
            <mxRectangle width="150" height="30" as="alternateBounds" />
          </mxGeometry>
        </mxCell>
        <mxCell id="8nepXyaak69FaHob-BBZ-15" style="edgeStyle=orthogonalEdgeStyle;rounded=0;orthogonalLoop=1;jettySize=auto;html=1;exitX=1;exitY=0.5;exitDx=0;exitDy=0;entryX=1;entryY=0.5;entryDx=0;entryDy=0;" edge="1" parent="1" source="UoIx4VkCo5RTUE-HzF3u-1" target="8nepXyaak69FaHob-BBZ-3">
          <mxGeometry relative="1" as="geometry" />
        </mxCell>
        <mxCell id="8nepXyaak69FaHob-BBZ-16" style="edgeStyle=orthogonalEdgeStyle;rounded=0;orthogonalLoop=1;jettySize=auto;html=1;exitX=1;exitY=0.5;exitDx=0;exitDy=0;entryX=0;entryY=0.5;entryDx=0;entryDy=0;" edge="1" parent="1" source="C6RfbS4eQZ4HKU1gtF4--17" target="8nepXyaak69FaHob-BBZ-6">
          <mxGeometry relative="1" as="geometry" />
        </mxCell>
        <mxCell id="8nepXyaak69FaHob-BBZ-17" value="1" style="text;html=1;strokeColor=none;fillColor=none;align=center;verticalAlign=middle;whiteSpace=wrap;rounded=0;" vertex="1" parent="1">
          <mxGeometry x="520" y="320" width="10" height="20" as="geometry" />
        </mxCell>
        <mxCell id="8nepXyaak69FaHob-BBZ-18" value="1" style="text;html=1;strokeColor=none;fillColor=none;align=center;verticalAlign=middle;whiteSpace=wrap;rounded=0;" vertex="1" parent="1">
          <mxGeometry x="769.97" y="434" width="10" height="20" as="geometry" />
        </mxCell>
        <mxCell id="8nepXyaak69FaHob-BBZ-19" value="n" style="text;html=1;strokeColor=none;fillColor=none;align=center;verticalAlign=middle;whiteSpace=wrap;rounded=0;" vertex="1" parent="1">
          <mxGeometry x="575.97" y="320" width="10" height="20" as="geometry" />
        </mxCell>
        <mxCell id="8nepXyaak69FaHob-BBZ-20" value="n" style="text;html=1;strokeColor=none;fillColor=none;align=center;verticalAlign=middle;whiteSpace=wrap;rounded=0;" vertex="1" parent="1">
          <mxGeometry x="773" y="320" width="10" height="20" as="geometry" />
        </mxCell>
      </root>
    </mxGraphModel>
  </diagram>
</mxfile>
